<svg xmlns="http://www.w3.org/2000/svg" xmlns:xlink="http://www.w3.org/1999/xlink" version="1.0" x="0px" y="0px" viewBox="0 0 100 125" enable-background="new 0 0 100 100" xml:space="preserve"><path d="M14.218,12.859c0-3.313,2.687-6,6-6c3.314,0,6,2.687,6,6c0,3.314-2.686,6-6,6C16.904,18.859,14.218,16.174,14.218,12.859  L14.218,12.859z M7.218,32.859c0-5.522,4.478-10,10-10h6c5.523,0,10,4.478,10,10v20l-4,4l-5,36h-8l-5-36l-4-4V32.859L7.218,32.859z   M69.218,85.859v-5l-14-6v5c0,3.313,2.687,6,6,6H69.218L69.218,85.859z M55.77,57.859l4.289-11.784  c1.964-5.406,7.095-9.074,12.854-9.212l18.305-0.002v6L73.02,42.862c-3.261,0.078-6.211,2.204-7.322,5.264l-3.543,9.733  l-1.667,4.582c1.453,1.492,3.483,2.418,5.73,2.418h25v24h-13c-1.104,0-2,0.896-2,2v2h-27v-18c0-3.783,1.313-7.261,3.51-10h-5.51  c-1.104,0-2-0.896-2-2v-3c0-1.104,0.896-2,2-2H55.77L55.77,57.859z"/><text x="0" y="115" fill="#000000" font-size="5px" font-weight="bold" font-family="'Helvetica Neue', Helvetica, Arial-Unicode, Arial, Sans-serif">Created by Sascha Elmers</text><text x="0" y="120" fill="#000000" font-size="5px" font-weight="bold" font-family="'Helvetica Neue', Helvetica, Arial-Unicode, Arial, Sans-serif">from the Noun Project</text></svg>
